<?xml version="1.0" encoding="UTF-8" standalone="no"?>
<svg
   xmlns:dc="http://purl.org/dc/elements/1.1/"
   xmlns:cc="http://creativecommons.org/ns#"
   xmlns:rdf="http://www.w3.org/1999/02/22-rdf-syntax-ns#"
   xmlns:svg="http://www.w3.org/2000/svg"
   xmlns="http://www.w3.org/2000/svg"
   xmlns:sodipodi="http://sodipodi.sourceforge.net/DTD/sodipodi-0.dtd"
   xmlns:inkscape="http://www.inkscape.org/namespaces/inkscape"
   height="16"
   width="16"
   version="1.1"
   id="svg10"
   sodipodi:docname="CurrentTime.svg"
   inkscape:version="1.0.2 (e86c870879, 2021-01-15, custom)"
   inkscape:export-filename="W:\My Documents\GitHub\qgis-datetimetools-plugin\images\CurrentTime.png"
   inkscape:export-xdpi="288"
   inkscape:export-ydpi="288">
  <metadata
     id="metadata16">
    <rdf:RDF>
      <cc:Work
         rdf:about="">
        <dc:format>image/svg+xml</dc:format>
        <dc:type
           rdf:resource="http://purl.org/dc/dcmitype/StillImage" />
        <dc:title />
      </cc:Work>
    </rdf:RDF>
  </metadata>
  <defs
     id="defs14" />
  <sodipodi:namedview
     pagecolor="#ffffff"
     bordercolor="#666666"
     borderopacity="1"
     objecttolerance="10"
     gridtolerance="10"
     guidetolerance="10"
     inkscape:pageopacity="0"
     inkscape:pageshadow="2"
     inkscape:window-width="1878"
     inkscape:window-height="994"
     id="namedview12"
     showgrid="false"
     inkscape:zoom="51.332961"
     inkscape:cx="8.1691281"
     inkscape:cy="7.7077544"
     inkscape:window-x="0"
     inkscape:window-y="14"
     inkscape:window-maximized="0"
     inkscape:current-layer="svg10"
     inkscape:document-rotation="0" />
  <rect
     style="fill:#ffffff;fill-opacity:1;stroke:none;stroke-width:1.12455;stroke-linecap:square;stroke-dashoffset:0.680315;paint-order:fill markers stroke"
     id="rect833"
     width="13.964"
     height="12.294824"
     x="1.036"
     y="2.7051761" />
  <path
     d="M5.61 6.05h1.926v1.835H5.61zm2.89 0h1.926v1.835H8.5zm2.889 0h1.926v1.835h-1.926zM2.72 11.556h1.926v1.836H2.721zm2.89 0h1.925v1.836H5.61zm2.889 0h1.926v1.836H8.5zM5.61 8.803h1.926v1.836H5.61zm2.89 0h1.926v1.836H8.5zm2.889 0h1.926v1.836h-1.926zm-8.668 0h1.926v1.836H2.721zM12.991 1v1.014h-1.926V1H4.971v1.014H2.973V1H1.036v14H15V1zm1.059 13.024H1.986V3.997H14.05z"
     fill="#555"
     id="path2"
     style="fill:#6d97c4;fill-opacity:1" />
  <g
     transform="matrix(.18334 0 0 .18334 6.178 6.922)"
     id="g8">
    <circle
       cx="24.25"
       cy="20"
       r="23.004"
       fill="#fff"
       stroke="#000"
       stroke-width="2.16"
       id="circle4" />
    <path
       d="M24.25-7c14.87 0 27 12.046 27 27 0 14.87-12.13 27-27 27-14.954 0-27-12.13-27-27 0-14.954 12.046-27 27-27zm0 48.018c11.63 0 21.018-9.47 21.018-21.101 0-11.63-9.387-21.019-21.018-21.019-11.63 0-21.102 9.388-21.102 21.019 0 11.63 9.471 21.101 21.102 21.101zm7.975-17.778h-8.473c-.914 0-1.662-.332-2.16-.997l-9.554-10.385c-2.576-2.741 1.661-6.729 4.32-4.07l8.64 9.47h7.227c4.071 0 3.656 5.982 0 5.982zM22.588 4.132c0-.83.748-1.578 1.579-1.578.83 0 1.578.748 1.578 1.578 0 .831-.747 1.579-1.578 1.579-.83 0-1.579-.748-1.579-1.579zm11.05 4.32c0-.83.747-1.578 1.578-1.578.83 0 1.579.748 1.579 1.578 0 .831-.748 1.579-1.579 1.579-.83 0-1.578-.748-1.578-1.579zm4.901 11.382c0-.83.748-1.579 1.579-1.579.83 0 1.578.748 1.578 1.579 0 .83-.748 1.578-1.578 1.578-.831 0-1.579-.747-1.579-1.578zm-4.403 11.132c0-.83.748-1.578 1.579-1.578.83 0 1.578.747 1.578 1.578 0 .83-.748 1.579-1.578 1.579-.831 0-1.579-.748-1.579-1.579zm-11.63 4.819c0-.831.747-1.579 1.578-1.579.83 0 1.578.748 1.578 1.579 0 .83-.747 1.578-1.578 1.578-.83 0-1.579-.748-1.579-1.578zm-10.8-4.32c0-.831.747-1.579 1.578-1.579.83 0 1.578.748 1.578 1.579 0 .83-.747 1.578-1.578 1.578-.83 0-1.579-.748-1.579-1.578zM6.72 19.834c0-.83.747-1.579 1.578-1.579.831 0 1.579.748 1.579 1.579 0 .83-.748 1.578-1.579 1.578-.83 0-1.578-.747-1.578-1.578z"
       fill="#555"
       id="path6"
       style="fill:#41af3d;fill-opacity:1" />
  </g>
  <text
     xml:space="preserve"
     style="font-style:normal;font-weight:normal;font-size:8.27819px;line-height:1.25;font-family:sans-serif;letter-spacing:0px;word-spacing:0px;fill:#000000;fill-opacity:1;stroke:none;stroke-width:1.03477"
     x="-0.54493797"
     y="5.4179764"
     id="text871"
     transform="scale(1.0347738,0.96639474)"><tspan
       sodipodi:role="line"
       id="tspan869"
       x="-0.54493797"
       y="5.4179764"
       style="font-style:normal;font-variant:normal;font-weight:bold;font-stretch:normal;font-size:8.27819px;font-family:'Tw Cen MT Condensed Extra Bold';-inkscape-font-specification:'Tw Cen MT Condensed Extra Bold, Bold';stroke-width:1.03477">NOW</tspan></text>
</svg>
