<?xml version="1.0" encoding="UTF-8" standalone="no"?>
<svg
   xmlns:dc="http://purl.org/dc/elements/1.1/"
   xmlns:cc="http://creativecommons.org/ns#"
   xmlns:rdf="http://www.w3.org/1999/02/22-rdf-syntax-ns#"
   xmlns:svg="http://www.w3.org/2000/svg"
   xmlns="http://www.w3.org/2000/svg"
   xmlns:sodipodi="http://sodipodi.sourceforge.net/DTD/sodipodi-0.dtd"
   xmlns:inkscape="http://www.inkscape.org/namespaces/inkscape"
   height="24"
   width="24"
   version="1.1"
   id="svg28"
   sodipodi:docname="tzAttributes.svg"
   inkscape:version="1.0.2 (e86c870879, 2021-01-15, custom)"
   inkscape:export-filename="C:\Users\cjhamil\Documents\GitHub\qgis-layersearch-plugin\icon.png"
   inkscape:export-xdpi="96"
   inkscape:export-ydpi="96">
  <metadata
     id="metadata34">
    <rdf:RDF>
      <cc:Work
         rdf:about="">
        <dc:format>image/svg+xml</dc:format>
        <dc:type
           rdf:resource="http://purl.org/dc/dcmitype/StillImage" />
        <dc:title />
      </cc:Work>
    </rdf:RDF>
  </metadata>
  <defs
     id="defs32">
    <linearGradient
       id="a"
       gradientUnits="userSpaceOnUse"
       x1="3.0864"
       x2="20.911501"
       y1="14.0254"
       y2="10.8823"
       gradientTransform="matrix(1.2237677,0,0,1.2237677,-2.6967438,-3.4257455)">
      <stop
         offset="0"
         stop-color="#c8e6fa"
         id="stop865" />
      <stop
         offset=".2857"
         stop-color="#b7ddf6"
         id="stop867" />
      <stop
         offset=".8515"
         stop-color="#8ac7eb"
         id="stop869" />
      <stop
         offset="1"
         stop-color="#7dc1e8"
         id="stop871" />
    </linearGradient>
  </defs>
  <sodipodi:namedview
     pagecolor="#ffffff"
     bordercolor="#666666"
     borderopacity="1"
     objecttolerance="10"
     gridtolerance="10"
     guidetolerance="10"
     inkscape:pageopacity="0"
     inkscape:pageshadow="2"
     inkscape:window-width="1508"
     inkscape:window-height="910"
     id="namedview30"
     showgrid="false"
     inkscape:zoom="14.9375"
     inkscape:cx="2.7364329"
     inkscape:cy="17.158124"
     inkscape:window-x="192"
     inkscape:window-y="54"
     inkscape:window-maximized="0"
     inkscape:current-layer="svg28"
     inkscape:document-rotation="0" />
  <path
     d="m 23.062342,11.818728 c 0,6.10293 -4.961154,11.061636 -11.073873,11.061636 -6.1163915,0 -11.07387435,-4.958706 -11.07387435,-11.061636 0,-6.112719 4.95870665,-11.07020197 11.07387435,-11.07020197 6.112719,0 11.073873,4.95748297 11.073873,11.07020197 z"
     id="path883"
     style="fill:#eaf5fd;stroke:#4774b4;stroke-width:1.5;stroke-linecap:round;stroke-linejoin:round;fill-opacity:1;stroke-miterlimit:4;stroke-dasharray:none"
     inkscape:connector-curvature="0" />
  <path
     d="m 11.988469,1.3310395 c 5.827581,5.8288055 5.827581,15.1380055 0,20.9692585"
     id="path885"
     inkscape:connector-curvature="0"
     style="fill:none;stroke:#4774b4;stroke-width:1.5;stroke-linecap:round;stroke-linejoin:round;stroke-miterlimit:4;stroke-dasharray:none" />
  <path
     d="m 11.988469,1.3310395 c -5.828806,5.8288055 -5.828806,15.1380055 0,20.9692585"
     id="path887"
     inkscape:connector-curvature="0"
     style="fill:none;stroke:#4774b4;stroke-width:1.5;stroke-linecap:round;stroke-linejoin:round;stroke-miterlimit:4;stroke-dasharray:none" />
  <path
     d="m 1.4971081,11.818728 c 2.3312774,0 18.6502199,0 20.9827209,0"
     id="path889"
     inkscape:connector-curvature="0"
     style="fill:none;stroke:#4774b4;stroke-width:1.5;stroke-linecap:round;stroke-linejoin:round;stroke-miterlimit:4;stroke-dasharray:none" />
  <path
     d="m 20.147328,4.8285675 c -3.273579,2.3471864 -12.6158215,2.5295278 -16.3189425,0"
     id="path891"
     inkscape:connector-curvature="0"
     style="fill:none;stroke:#4774b4;stroke-width:1.5;stroke-linecap:round;stroke-linejoin:round;stroke-miterlimit:4;stroke-dasharray:none" />
  <path
     d="m 20.147328,18.801547 c -4.218327,-2.284775 -11.8803371,-2.441417 -16.3189425,0"
     id="path893"
     inkscape:connector-curvature="0"
     style="fill:none;stroke:#4774b4;stroke-width:1.5;stroke-linecap:round;stroke-linejoin:round;stroke-miterlimit:4;stroke-dasharray:none" />
  <g
     transform="matrix(0.27012134,0,0,0.27012134,10.119014,11.333976)"
     id="g8">
    <circle
       cx="24.25"
       cy="20"
       r="23.004"
       fill="#ffffff"
       stroke="#000000"
       stroke-width="2.16"
       id="circle4" />
    <path
       d="m 24.25,-7 c 14.87,0 27,12.046 27,27 0,14.87 -12.13,27 -27,27 -14.954,0 -27,-12.13 -27,-27 0,-14.954 12.046,-27 27,-27 z m 0,48.018 c 11.63,0 21.018,-9.47 21.018,-21.101 0,-11.63 -9.387,-21.019 -21.018,-21.019 -11.63,0 -21.102,9.388 -21.102,21.019 0,11.63 9.471,21.101 21.102,21.101 z M 32.225,23.24 h -8.473 c -0.914,0 -1.662,-0.332 -2.16,-0.997 L 12.038,11.858 c -2.576,-2.741 1.661,-6.729 4.32,-4.07 l 8.64,9.47 h 7.227 c 4.071,0 3.656,5.982 0,5.982 z M 22.588,4.132 c 0,-0.83 0.748,-1.578 1.579,-1.578 0.83,0 1.578,0.748 1.578,1.578 0,0.831 -0.747,1.579 -1.578,1.579 -0.83,0 -1.579,-0.748 -1.579,-1.579 z m 11.05,4.32 c 0,-0.83 0.747,-1.578 1.578,-1.578 0.83,0 1.579,0.748 1.579,1.578 0,0.831 -0.748,1.579 -1.579,1.579 -0.83,0 -1.578,-0.748 -1.578,-1.579 z m 4.901,11.382 c 0,-0.83 0.748,-1.579 1.579,-1.579 0.83,0 1.578,0.748 1.578,1.579 0,0.83 -0.748,1.578 -1.578,1.578 -0.831,0 -1.579,-0.747 -1.579,-1.578 z m -4.403,11.132 c 0,-0.83 0.748,-1.578 1.579,-1.578 0.83,0 1.578,0.747 1.578,1.578 0,0.83 -0.748,1.579 -1.578,1.579 -0.831,0 -1.579,-0.748 -1.579,-1.579 z m -11.63,4.819 c 0,-0.831 0.747,-1.579 1.578,-1.579 0.83,0 1.578,0.748 1.578,1.579 0,0.83 -0.747,1.578 -1.578,1.578 -0.83,0 -1.579,-0.748 -1.579,-1.578 z m -10.8,-4.32 c 0,-0.831 0.747,-1.579 1.578,-1.579 0.83,0 1.578,0.748 1.578,1.579 0,0.83 -0.747,1.578 -1.578,1.578 -0.83,0 -1.579,-0.748 -1.579,-1.578 z M 6.72,19.834 c 0,-0.83 0.747,-1.579 1.578,-1.579 0.831,0 1.579,0.748 1.579,1.579 0,0.83 -0.748,1.578 -1.579,1.578 -0.83,0 -1.578,-0.747 -1.578,-1.578 z"
       fill="#555"
       id="path6-9"
       style="fill:#41af3d;fill-opacity:1" />
  </g>
</svg>
