<?xml version="1.0" encoding="UTF-8" standalone="no"?>
<svg
   xmlns:dc="http://purl.org/dc/elements/1.1/"
   xmlns:cc="http://creativecommons.org/ns#"
   xmlns:rdf="http://www.w3.org/1999/02/22-rdf-syntax-ns#"
   xmlns:svg="http://www.w3.org/2000/svg"
   xmlns="http://www.w3.org/2000/svg"
   xmlns:sodipodi="http://sodipodi.sourceforge.net/DTD/sodipodi-0.dtd"
   xmlns:inkscape="http://www.inkscape.org/namespaces/inkscape"
   height="16"
   width="16"
   version="1.1"
   id="svg861"
   sodipodi:docname="tzCapture.svg"
   inkscape:version="1.0.2 (e86c870879, 2021-01-15, custom)">
  <metadata
     id="metadata867">
    <rdf:RDF>
      <cc:Work
         rdf:about="">
        <dc:format>image/svg+xml</dc:format>
        <dc:type
           rdf:resource="http://purl.org/dc/dcmitype/StillImage" />
        <dc:title></dc:title>
      </cc:Work>
    </rdf:RDF>
  </metadata>
  <defs
     id="defs865" />
  <sodipodi:namedview
     pagecolor="#ffffff"
     bordercolor="#666666"
     borderopacity="1"
     objecttolerance="10"
     gridtolerance="10"
     guidetolerance="10"
     inkscape:pageopacity="0"
     inkscape:pageshadow="2"
     inkscape:window-width="1800"
     inkscape:window-height="1026"
     id="namedview863"
     showgrid="false"
     inkscape:zoom="50.8125"
     inkscape:cx="8"
     inkscape:cy="6.114042"
     inkscape:window-x="43"
     inkscape:window-y="22"
     inkscape:window-maximized="0"
     inkscape:current-layer="svg861" />
  <path
     d="m 1.036 2.7051761 h 13.964 v 12.294824 h -13.964 z"
     fill="#fff"
     id="path851" />
  <g
     transform="matrix(0.18334,0,0,0.18334,1.277631,6.7645584)"
     id="g859">
    <circle
       cx="24.25"
       cy="20"
       fill="#ffffff"
       r="23.004"
       stroke="#000000"
       stroke-width="2.16"
       id="circle855" />
    <path
       d="m 24.25,-7 c 14.87,0 27,12.046 27,27 0,14.87 -12.13,27 -27,27 -14.954,0 -27,-12.13 -27,-27 0,-14.954 12.046,-27 27,-27 z m 0,48.018 c 11.63,0 21.018,-9.47 21.018,-21.101 0,-11.63 -9.387,-21.019 -21.018,-21.019 -11.63,0 -21.102,9.388 -21.102,21.019 0,11.63 9.471,21.101 21.102,21.101 z M 32.225,23.24 h -8.473 c -0.914,0 -1.662,-0.332 -2.16,-0.997 L 12.038,11.858 c -2.576,-2.741 1.661,-6.729 4.32,-4.07 l 8.64,9.47 h 7.227 c 4.071,0 3.656,5.982 0,5.982 z M 22.588,4.132 c 0,-0.83 0.748,-1.578 1.579,-1.578 0.83,0 1.578,0.748 1.578,1.578 0,0.831 -0.747,1.579 -1.578,1.579 -0.83,0 -1.579,-0.748 -1.579,-1.579 z m 11.05,4.32 c 0,-0.83 0.747,-1.578 1.578,-1.578 0.83,0 1.579,0.748 1.579,1.578 0,0.831 -0.748,1.579 -1.579,1.579 -0.83,0 -1.578,-0.748 -1.578,-1.579 z m 4.901,11.382 c 0,-0.83 0.748,-1.579 1.579,-1.579 0.83,0 1.578,0.748 1.578,1.579 0,0.83 -0.748,1.578 -1.578,1.578 -0.831,0 -1.579,-0.747 -1.579,-1.578 z m -4.403,11.132 c 0,-0.83 0.748,-1.578 1.579,-1.578 0.83,0 1.578,0.747 1.578,1.578 0,0.83 -0.748,1.579 -1.578,1.579 -0.831,0 -1.579,-0.748 -1.579,-1.579 z m -11.63,4.819 c 0,-0.831 0.747,-1.579 1.578,-1.579 0.83,0 1.578,0.748 1.578,1.579 0,0.83 -0.747,1.578 -1.578,1.578 -0.83,0 -1.579,-0.748 -1.579,-1.578 z m -10.8,-4.32 c 0,-0.831 0.747,-1.579 1.578,-1.579 0.83,0 1.578,0.748 1.578,1.579 0,0.83 -0.747,1.578 -1.578,1.578 -0.83,0 -1.579,-0.748 -1.579,-1.578 z M 6.72,19.834 c 0,-0.83 0.747,-1.579 1.578,-1.579 0.831,0 1.579,0.748 1.579,1.579 0,0.83 -0.748,1.578 -1.579,1.578 -0.83,0 -1.578,-0.747 -1.578,-1.578 z"
       fill="#41af3d"
       id="path857" />
  </g>
  <text
     xml:space="preserve"
     style="font-style:normal;font-weight:normal;font-size:8px;line-height:1.25;font-family:sans-serif;letter-spacing:0px;word-spacing:0px;fill:#000000;fill-opacity:1;stroke:none"
     x="2.2829027"
     y="6.8093481"
     id="text871"><tspan
       sodipodi:role="line"
       id="tspan869"
       x="2.2829027"
       y="6.8093481"
       style="font-style:normal;font-variant:normal;font-weight:bold;font-stretch:normal;font-size:8px;font-family:sans-serif;-inkscape-font-specification:'sans-serif Bold'">TZ</tspan></text>
  <circle
     style="fill:#ff0000;fill-rule:evenodd;stroke-width:1.64122"
     id="path873"
     cx="13.313654"
     cy="10.656827"
     r="2.1156211" />
</svg>
