<svg height="16" width="16" xmlns="http://www.w3.org/2000/svg"><path d="m 1.036 2.7051761 h 13.964 v 12.294824 h -13.964 z" fill="#fff"/><path d="m 5.61 6.05 h 1.926 v 1.835 h -1.926 z m 2.89 0 h 1.926 v 1.835 h -1.926 z m 2.889 0 h 1.926 v 1.835 h -1.926 z m -8.669 5.506 h 1.926 v 1.836 h -1.925 z m 2.89 0 h 1.925 v 1.836 h -1.925 z m 2.889 0 h 1.926 v 1.836 h -1.925 z m -2.889 -2.753 h 1.926 v 1.836 h -1.926 z m 2.89 0 h 1.926 v 1.836 h -1.926 z m 2.889 0 h 1.926 v 1.836 h -1.926 z m -8.668 0 h 1.926 v 1.836 h -1.926 z m 10.27 -7.803 v 1.014 h -1.926 v -1.014 h -6.094 v 1.014 h -1.998 v -1.014 h -1.937 v 14 h 13.964 v -14 z m 1.059 13.024 h -12.064 v -10.027 h 12.064 z" fill="#6d97c4"/><g transform="matrix(.18334 0 0 .18334 6.178 6.922)"><circle cx="24.25" cy="20" fill="#fff" r="23.004" stroke="#000" stroke-width="2.16"/><path d="m 24.25 -7 c 14.87 0 27 12.046 27 27 0 14.87 -12.13 27 -27 27 -14.954 0 -27 -12.13 -27 -27 0 -14.954 12.046 -27 27 -27 z m 0 48.018 c 11.63 0 21.018 -9.47 21.018 -21.101 0 -11.63 -9.387 -21.019 -21.018 -21.019 -11.63 0 -21.102 9.388 -21.102 21.019 0 11.63 9.471 21.101 21.102 21.101 z m 7.975 -17.778 h -8.473 c -.914 0 -1.662 -.332 -2.16 -.997 l -9.554 -10.385 c -2.576 -2.741 1.661 -6.729 4.32 -4.07 l 8.64 9.47 h 7.227 c 4.071 0 3.656 5.982 0 5.982 z m -9.637 -19.108 c 0 -.83 .748 -1.578 1.579 -1.578 .83 0 1.578 .748 1.578 1.578 0 .831 -.747 1.579 -1.578 1.579 -.83 0 -1.579 -.748 -1.579 -1.579 z m 11.05 4.32 c 0 -.83 .747 -1.578 1.578 -1.578 .83 0 1.579 .748 1.579 1.578 0 .831 -.748 1.579 -1.579 1.579 -.83 0 -1.578 -.748 -1.578 -1.579 z m 4.901 11.382 c 0 -.83 .748 -1.579 1.579 -1.579 .83 0 1.578 .748 1.578 1.579 0 .83 -.748 1.578 -1.578 1.578 -.831 0 -1.579 -.747 -1.579 -1.578 z m -4.403 11.132 c 0 -.83 .748 -1.578 1.579 -1.578 .83 0 1.578 .747 1.578 1.578 0 .83 -.748 1.579 -1.578 1.579 -.831 0 -1.579 -.748 -1.579 -1.579 z m -11.63 4.819 c 0 -.831 .747 -1.579 1.578 -1.579 .83 0 1.578 .748 1.578 1.579 0 .83 -.747 1.578 -1.578 1.578 -.83 0 -1.579 -.748 -1.579 -1.578 z m -10.8 -4.32 c 0 -.831 .747 -1.579 1.578 -1.579 .83 0 1.578 .748 1.578 1.579 0 .83 -.747 1.578 -1.578 1.578 -.83 0 -1.579 -.748 -1.579 -1.578 z m -4.986 -11.631 c 0 -.83 .747 -1.579 1.578 -1.579 s 1.579 .748 1.579 1.579 c 0 .83 -.748 1.578 -1.579 1.578 -.83 0 -1.578 -.747 -1.578 -1.578 z" fill="#41af3d"/></g></svg>