<svg height="24" width="24" xmlns="http://www.w3.org/2000/svg"><g stroke="#4774b4" stroke-linecap="round" stroke-linejoin="round" stroke-width="1.5"><path d="m 23.062342 11.818728 c 0 6.10293 -4.961154 11.061636 -11.073873 11.061636 -6.1163915 0 -11.07387435 -4.958706 -11.07387435 -11.061636 0 -6.112719 4.95870665 -11.07020197 11.07387435 -11.07020197 6.112719 0 11.073873 4.95748297 11.073873 11.07020197 z" fill="#eaf5fd"/><path d="m 11.988469 1.3310395 c 5.827581 5.8288055 5.827581 15.1380055 0 20.9692585" fill="none"/><path d="m 11.988469 1.3310395 c -5.828806 5.8288055 -5.828806 15.1380055 0 20.9692585" fill="none"/><path d="m 1.4971081 11.818728 h 20.9827209" fill="none"/><path d="m 20.147328 4.8285675 c -3.273579 2.3471864 -12.6158215 2.5295278 -16.3189425 0" fill="none"/><path d="m 20.147328 18.801547 c -4.218327 -2.284775 -11.8803371 -2.441417 -16.3189425 0" fill="none"/></g><g transform="matrix(.27012134 0 0 .27012134 10.119014 11.333976)"><circle cx="24.25" cy="20" fill="#fff" r="23.004" stroke="#000" stroke-width="2.16"/><path d="m 24.25 -7 c 14.87 0 27 12.046 27 27 0 14.87 -12.13 27 -27 27 -14.954 0 -27 -12.13 -27 -27 0 -14.954 12.046 -27 27 -27 z m 0 48.018 c 11.63 0 21.018 -9.47 21.018 -21.101 0 -11.63 -9.387 -21.019 -21.018 -21.019 -11.63 0 -21.102 9.388 -21.102 21.019 0 11.63 9.471 21.101 21.102 21.101 z m 7.975 -17.778 h -8.473 c -.914 0 -1.662 -.332 -2.16 -.997 l -9.554 -10.385 c -2.576 -2.741 1.661 -6.729 4.32 -4.07 l 8.64 9.47 h 7.227 c 4.071 0 3.656 5.982 0 5.982 z m -9.637 -19.108 c 0 -.83 .748 -1.578 1.579 -1.578 .83 0 1.578 .748 1.578 1.578 0 .831 -.747 1.579 -1.578 1.579 -.83 0 -1.579 -.748 -1.579 -1.579 z m 11.05 4.32 c 0 -.83 .747 -1.578 1.578 -1.578 .83 0 1.579 .748 1.579 1.578 0 .831 -.748 1.579 -1.579 1.579 -.83 0 -1.578 -.748 -1.578 -1.579 z m 4.901 11.382 c 0 -.83 .748 -1.579 1.579 -1.579 .83 0 1.578 .748 1.578 1.579 0 .83 -.748 1.578 -1.578 1.578 -.831 0 -1.579 -.747 -1.579 -1.578 z m -4.403 11.132 c 0 -.83 .748 -1.578 1.579 -1.578 .83 0 1.578 .747 1.578 1.578 0 .83 -.748 1.579 -1.578 1.579 -.831 0 -1.579 -.748 -1.579 -1.579 z m -11.63 4.819 c 0 -.831 .747 -1.579 1.578 -1.579 .83 0 1.578 .748 1.578 1.579 0 .83 -.747 1.578 -1.578 1.578 -.83 0 -1.579 -.748 -1.579 -1.578 z m -10.8 -4.32 c 0 -.831 .747 -1.579 1.578 -1.579 .83 0 1.578 .748 1.578 1.579 0 .83 -.747 1.578 -1.578 1.578 -.83 0 -1.579 -.748 -1.579 -1.578 z m -4.986 -11.631 c 0 -.83 .747 -1.579 1.578 -1.579 s 1.579 .748 1.579 1.579 c 0 .83 -.748 1.578 -1.579 1.578 -.83 0 -1.578 -.747 -1.578 -1.578 z" fill="#41af3d"/></g></svg>